<svg width="250" height="87" viewBox="0 0 250 87" fill="none" xmlns="http://www.w3.org/2000/svg">
<path d="M98.3629 22.598C96.1927 23.5194 94.0224 24.4193 91.8734 25.3835C88.9584 26.6906 86.1072 28.1262 83.1709 29.4118C78.6176 31.4045 74.0217 33.3543 69.4258 35.3042C66.681 36.4827 64.1277 37.9183 61.8936 39.8038C59.5957 41.7323 57.5743 43.8964 55.7232 46.2105C52.2125 50.603 48.6804 55.0384 45.1484 59.4523C44.9143 59.7523 44.659 60.0523 44.3398 60.4594C44.659 60.4379 44.8718 60.4165 45.0633 60.3951C47.4038 60.0951 46.957 60.3522 48.5953 58.8309C50.7443 56.8596 52.8295 54.8455 55.2338 53.1314C58.8084 50.603 62.4681 48.2032 66.4895 46.2962C71.3408 44.0035 76.426 42.3322 81.7879 41.3251C83.8731 40.9395 85.9157 40.4681 87.9796 40.0181C88.9371 39.8038 89.7882 39.3539 90.2776 38.5396C92.0223 35.6256 93.8309 32.7544 95.4267 29.776C96.6395 27.5262 97.5544 25.1693 98.5757 22.8552C98.6183 22.7695 98.6183 22.6623 98.6608 22.5123C98.5332 22.5552 98.4481 22.5766 98.3629 22.598Z" fill="white"/>
<path d="M72.4255 55.8739C74.5533 55.5311 76.7236 55.4025 78.8938 55.274C80.213 55.1882 81.0429 54.6954 81.7237 53.6669C83.7238 50.6243 85.8303 47.646 87.8942 44.6462C87.9154 44.6248 87.9154 44.5819 87.9793 44.4105C86.9367 44.5605 85.9579 44.6676 85.0004 44.8605C82.4472 45.3533 79.8726 45.7818 77.3619 46.4032C73.766 47.3032 70.4255 48.7816 67.1488 50.3886C61.9784 52.9384 57.3186 56.1525 52.7866 59.5593C52.7227 59.6236 52.6589 59.6879 52.5312 59.8379C52.7866 59.8379 52.9355 59.8165 53.0845 59.8379C53.9781 59.8807 54.9143 59.8593 55.7867 60.0093C57.2761 60.2878 58.5953 60.095 59.9358 59.4522C61.7656 58.5737 63.6806 57.8023 65.7232 57.3738C67.9573 56.8595 70.1701 56.2382 72.4255 55.8739Z" fill="white"/>
<path d="M94.8943 64.1876C94.4049 63.9947 93.9155 63.8233 93.4049 63.6519C88.8515 62.1306 84.3407 60.5236 80.0853 58.4023C79.4257 58.0595 78.7235 58.0166 77.9788 58.1023C72.7233 58.6809 67.5955 59.7736 62.5528 61.2307C62.4464 61.2521 62.3613 61.3164 62.2549 61.3592C62.2549 61.4021 62.2549 61.4235 62.2549 61.4663C63.2975 61.702 64.3188 62.002 65.3826 62.1734C66.9997 62.4306 68.6381 62.6234 70.2552 62.8162C73.1489 63.1591 76.0426 63.5233 78.9363 63.8019C81.596 64.0376 84.2556 64.1876 86.9153 64.3161C89.1281 64.4233 91.3622 64.4447 93.5751 64.4875C94.0432 64.4875 94.49 64.4018 95.0432 64.359C94.9368 64.2304 94.9156 64.1876 94.8943 64.1876Z" fill="white"/>
<path d="M115.816 40.1378C115.759 39.5649 115.515 39.1198 115.084 38.8026C114.654 38.4853 114.069 38.3267 113.33 38.3267C112.828 38.3267 112.405 38.3977 112.059 38.5398C111.713 38.6771 111.448 38.8688 111.263 39.1151C111.083 39.3613 110.994 39.6406 110.994 39.9531C110.984 40.2135 111.039 40.4408 111.157 40.6349C111.28 40.8291 111.448 40.9972 111.661 41.1392C111.874 41.2765 112.12 41.3973 112.4 41.5014C112.679 41.6009 112.977 41.6861 113.295 41.7571L114.601 42.0696C115.236 42.2116 115.818 42.401 116.349 42.6378C116.879 42.8745 117.338 43.1657 117.726 43.5114C118.115 43.857 118.415 44.2642 118.628 44.733C118.846 45.2017 118.958 45.7391 118.962 46.3452C118.958 47.2353 118.73 48.0071 118.28 48.6605C117.835 49.3092 117.191 49.8134 116.349 50.1733C115.511 50.5284 114.5 50.706 113.316 50.706C112.142 50.706 111.119 50.526 110.248 50.1662C109.381 49.8063 108.704 49.2737 108.217 48.5682C107.734 47.858 107.48 46.9796 107.457 45.9332H110.432C110.466 46.4209 110.605 46.8281 110.851 47.1548C111.102 47.4768 111.436 47.7206 111.853 47.8864C112.274 48.0473 112.75 48.1278 113.28 48.1278C113.801 48.1278 114.253 48.0521 114.637 47.9006C115.025 47.7491 115.326 47.5384 115.539 47.2685C115.752 46.9986 115.859 46.6884 115.859 46.3381C115.859 46.0114 115.762 45.7367 115.567 45.5142C115.378 45.2917 115.099 45.1023 114.729 44.946C114.365 44.7898 113.917 44.6477 113.387 44.5199L111.803 44.1222C110.577 43.8239 109.609 43.3575 108.898 42.723C108.188 42.0885 107.835 41.2339 107.84 40.1591C107.835 39.2784 108.07 38.509 108.543 37.8509C109.021 37.1927 109.677 36.679 110.511 36.3097C111.344 35.9403 112.291 35.7557 113.351 35.7557C114.431 35.7557 115.373 35.9403 116.178 36.3097C116.988 36.679 117.618 37.1927 118.067 37.8509C118.517 38.509 118.749 39.2713 118.763 40.1378H115.816ZM123.126 50.5L120.157 39.5909H123.218L124.909 46.9205H125.008L126.769 39.5909H129.774L131.563 46.8778H131.656L133.318 39.5909H136.372L133.41 50.5H130.207L128.332 43.6392H128.197L126.322 50.5H123.126ZM137.986 50.5V39.5909H141.011V50.5H137.986ZM139.506 38.1847C139.056 38.1847 138.67 38.0355 138.348 37.7372C138.031 37.4342 137.872 37.072 137.872 36.6506C137.872 36.2339 138.031 35.8764 138.348 35.5781C138.67 35.2751 139.056 35.1236 139.506 35.1236C139.955 35.1236 140.339 35.2751 140.656 35.5781C140.978 35.8764 141.139 36.2339 141.139 36.6506C141.139 37.072 140.978 37.4342 140.656 37.7372C140.339 38.0355 139.955 38.1847 139.506 38.1847ZM149.301 39.5909V41.8636H142.568V39.5909H149.301ZM144.11 50.5V38.8026C144.11 38.0118 144.264 37.3561 144.571 36.8352C144.884 36.3144 145.31 35.9238 145.85 35.6634C146.389 35.4029 147.003 35.2727 147.689 35.2727C148.153 35.2727 148.577 35.3082 148.96 35.3793C149.349 35.4503 149.638 35.5142 149.827 35.571L149.287 37.8438C149.169 37.8059 149.022 37.7704 148.847 37.7372C148.676 37.7041 148.501 37.6875 148.321 37.6875C147.876 37.6875 147.566 37.7917 147.391 38C147.216 38.2036 147.128 38.4901 147.128 38.8594V50.5H144.11ZM156.952 39.5909V41.8636H150.383V39.5909H156.952ZM151.874 36.9773H154.9V47.1477C154.9 47.4271 154.942 47.6449 155.028 47.8011C155.113 47.9527 155.231 48.0592 155.383 48.1207C155.539 48.1823 155.719 48.2131 155.922 48.2131C156.065 48.2131 156.207 48.2012 156.349 48.1776C156.491 48.1491 156.6 48.1278 156.675 48.1136L157.151 50.3651C157 50.4124 156.787 50.4669 156.512 50.5284C156.237 50.5947 155.904 50.6349 155.511 50.6491C154.781 50.6776 154.142 50.5805 153.593 50.358C153.048 50.1354 152.625 49.7898 152.322 49.321C152.019 48.8523 151.869 48.2604 151.874 47.5455V36.9773ZM163.609 50.5V35.9545H169.348C170.446 35.9545 171.384 36.151 172.16 36.544C172.941 36.9323 173.536 37.4839 173.943 38.1989C174.355 38.9091 174.561 39.7448 174.561 40.706C174.561 41.6719 174.352 42.5028 173.936 43.1989C173.519 43.8902 172.915 44.4205 172.125 44.7898C171.339 45.1591 170.387 45.3438 169.269 45.3438H165.427V42.8722H168.772C169.359 42.8722 169.847 42.7917 170.235 42.6307C170.624 42.4697 170.912 42.2282 171.102 41.9062C171.296 41.5843 171.393 41.1842 171.393 40.706C171.393 40.223 171.296 39.8158 171.102 39.4844C170.912 39.1529 170.621 38.902 170.228 38.7315C169.84 38.5563 169.35 38.4688 168.758 38.4688H166.684V50.5H163.609ZM171.464 43.8807L175.079 50.5H171.684L168.147 43.8807H171.464ZM176.677 50.5V39.5909H179.703V50.5H176.677ZM178.197 38.1847C177.747 38.1847 177.361 38.0355 177.039 37.7372C176.722 37.4342 176.563 37.072 176.563 36.6506C176.563 36.2339 176.722 35.8764 177.039 35.5781C177.361 35.2751 177.747 35.1236 178.197 35.1236C178.647 35.1236 179.03 35.2751 179.348 35.5781C179.67 35.8764 179.831 36.2339 179.831 36.6506C179.831 37.072 179.67 37.4342 179.348 37.7372C179.03 38.0355 178.647 38.1847 178.197 38.1847ZM186.146 50.6776C185.318 50.6776 184.567 50.4645 183.895 50.0384C183.227 49.6075 182.697 48.9754 182.304 48.142C181.916 47.304 181.722 46.2765 181.722 45.0597C181.722 43.8097 181.923 42.7704 182.325 41.9418C182.728 41.1084 183.263 40.4858 183.93 40.0739C184.603 39.6572 185.339 39.4489 186.139 39.4489C186.75 39.4489 187.259 39.553 187.666 39.7614C188.078 39.965 188.409 40.2206 188.66 40.5284C188.916 40.8314 189.11 41.1297 189.243 41.4233H189.335V35.9545H192.354V50.5H189.371V48.7528H189.243C189.101 49.0559 188.9 49.3565 188.639 49.6548C188.383 49.9484 188.05 50.1922 187.638 50.3864C187.23 50.5805 186.733 50.6776 186.146 50.6776ZM187.105 48.2699C187.593 48.2699 188.005 48.1373 188.341 47.8722C188.682 47.6023 188.942 47.2259 189.122 46.7429C189.307 46.2599 189.399 45.6941 189.399 45.0455C189.399 44.3968 189.309 43.8333 189.129 43.3551C188.949 42.8769 188.689 42.5076 188.348 42.2472C188.007 41.9867 187.593 41.8565 187.105 41.8565C186.608 41.8565 186.189 41.9915 185.848 42.2614C185.507 42.5312 185.249 42.9053 185.074 43.3835C184.899 43.8617 184.811 44.4157 184.811 45.0455C184.811 45.6799 184.899 46.241 185.074 46.7287C185.254 47.2116 185.512 47.5904 185.848 47.8651C186.189 48.1349 186.608 48.2699 187.105 48.2699ZM199.813 50.7131C198.691 50.7131 197.725 50.4858 196.915 50.0312C196.11 49.572 195.49 48.9233 195.054 48.0852C194.619 47.2424 194.401 46.2457 194.401 45.0952C194.401 43.973 194.619 42.9882 195.054 42.1406C195.49 41.2931 196.103 40.6326 196.894 40.1591C197.689 39.6856 198.622 39.4489 199.692 39.4489C200.412 39.4489 201.082 39.5649 201.702 39.7969C202.327 40.0241 202.871 40.3674 203.335 40.8267C203.804 41.286 204.169 41.8636 204.429 42.5597C204.69 43.2509 204.82 44.0606 204.82 44.9886V45.8196H195.608V43.9446H201.972C201.972 43.509 201.877 43.1231 201.688 42.7869C201.498 42.4508 201.236 42.188 200.899 41.9986C200.568 41.8045 200.182 41.7074 199.742 41.7074C199.282 41.7074 198.875 41.8139 198.52 42.027C198.17 42.2353 197.895 42.517 197.696 42.8722C197.497 43.2225 197.396 43.6132 197.391 44.044V45.8267C197.391 46.3665 197.49 46.8329 197.689 47.2259C197.893 47.6188 198.179 47.9219 198.549 48.1349C198.918 48.348 199.356 48.4545 199.862 48.4545C200.199 48.4545 200.506 48.4072 200.786 48.3125C201.065 48.2178 201.304 48.0758 201.503 47.8864C201.702 47.697 201.853 47.465 201.958 47.1903L204.756 47.375C204.614 48.0473 204.323 48.6345 203.882 49.1364C203.447 49.6335 202.883 50.0218 202.192 50.3011C201.505 50.5758 200.712 50.7131 199.813 50.7131Z" fill="white"/>
</svg>
